<svg xmlns="http://www.w3.org/2000/svg" xmlns:xlink="http://www.w3.org/1999/xlink" version="1.1" id="&#1057;&#1083;&#1086;&#1081;_1" x="0px" y="0px" viewBox="0 0 50 50" style="enable-background:new 6 4 50 41;" xml:space="preserve" width="100px" height="100px"><path d="M46.8,9c0-3.2-2.6-5.9-5.9-5.9c-3,0-5.4,2.2-5.8,5.1c-3.3-1-7-0.1-9.7,2.5l-0.8,0.8l-4.3,4.3l-3.534,3.606l4.335,4.292  L29.8,15c1.4-1.4,3.7-1.4,5.1,0c1.187,1.187,1.357,3.018,0.53,4.402l0.084,0.084l4.257,4.257c2.126-2.545,2.756-5.908,1.928-8.943  C44.6,14.4,46.8,12,46.8,9z"/><path d="M41.1,47c3.2,0,5.9-2.6,5.9-5.9c0-3-2.2-5.4-5.1-5.8c1-3.3,0.1-7-2.5-9.7l-0.8-0.8l-4.3-4.3l-3.606-3.534l-4.292,4.335  L35.1,30c1.4,1.4,1.4,3.7,0,5.1c-1.187,1.187-3.018,1.357-4.402,0.53l-0.084,0.084l-4.257,4.257  c2.545,2.126,5.908,2.756,8.943,1.928C35.7,44.8,38.1,47,41.1,47z"/><path d="M8.9,2.966c-3.2,0-5.9,2.6-5.9,5.9c0,3,2.2,5.4,5.1,5.8c-1,3.3-0.1,7,2.5,9.7l0.8,0.8l4.3,4.3L19.306,33l4.292-4.335  L14.9,19.966c-1.4-1.4-1.4-3.7,0-5.1c1.187-1.187,3.018-1.357,4.402-0.53l0.084-0.084l4.257-4.257  c-2.545-2.126-5.908-2.756-8.943-1.928C14.3,5.166,11.9,2.966,8.9,2.966z"/><path d="M3,41.1C3,44.3,5.6,47,8.9,47c3,0,5.4-2.2,5.8-5.1c3.3,1,7,0.1,9.7-2.5l0.8-0.8l4.3-4.3l3.534-3.606l-4.335-4.292L20,35.1  c-1.4,1.4-3.7,1.4-5.1,0c-1.187-1.187-1.357-3.018-0.53-4.402l-0.084-0.084l-4.257-4.257C7.902,28.902,7.272,32.265,8.1,35.3  C5.2,35.7,3,38.1,3,41.1z"/></svg>